<svg width="24" height="24" viewBox="0 0 24 24" version="1.1" xmlns="http://www.w3.org/2000/svg" xmlns:xlink="http://www.w3.org/1999/xlink">
<title>Checklist circle</title>
<desc>Created using Figma</desc>
<g id="Canvas" transform="translate(959 300)">
<g id="Checklist circle">
<g id="Ellipse">
<mask id="mask0_outline_ins">
<use xlink:href="#path0_fill" fill="white" transform="translate(-959 -300)"/>
</mask>
<g mask="url(#mask0_outline_ins)">
<use xlink:href="#path1_stroke_2x" transform="translate(-959 -300)" fill="#219653"/>
</g>
</g>
<g id="Checklis">
<g id="Rectangle 2">
<use xlink:href="#path2_fill" transform="matrix(0.687169 0.726497 -0.667575 0.744542 -954.959 -289)" fill="#219653"/>
</g>
<g id="Rectangle 2.1">
<use xlink:href="#path3_fill" transform="matrix(0.687169 -0.726497 0.667735 0.744399 -950.969 -282.709)" fill="#219653"/>
</g>
</g>
</g>
</g>
<defs>
<path id="path0_fill" d="M 24 12C 24 18.6274 18.6274 24 12 24C 5.37258 24 0 18.6274 0 12C 0 5.37258 5.37258 0 12 0C 18.6274 0 24 5.37258 24 12Z"/>
<path id="path1_stroke_2x" d="M 23 12C 23 18.0751 18.0751 23 12 23L 12 25C 19.1797 25 25 19.1797 25 12L 23 12ZM 12 23C 5.92487 23 1 18.0751 1 12L -1 12C -1 19.1797 4.8203 25 12 25L 12 23ZM 1 12C 1 5.92487 5.92487 1 12 1L 12 -1C 4.8203 -1 -1 4.8203 -1 12L 1 12ZM 12 1C 18.0751 1 23 5.92487 23 12L 25 12C 25 4.8203 19.1797 -1 12 -1L 12 1Z"/>
<path id="path2_fill" d="M 5.53596e-13 0.78C 5.53596e-13 0.349218 0.349218 -3.54703e-13 0.78 -3.54703e-13L 8.80338 -3.54703e-13C 9.23416 -3.54703e-13 9.58338 0.349218 9.58338 0.78C 9.58338 1.21078 9.23416 1.56 8.80338 1.56L 0.78 1.56C 0.349218 1.56 5.53596e-13 1.21078 5.53596e-13 0.78Z"/>
<path id="path3_fill" d="M 0 1.56067C 0 1.19581 0.253454 0.878987 0.610388 0.803374C 6.16943 -0.374269 9.76366 -0.163798 15.8571 0.830172C 16.2285 0.890756 16.5008 1.21223 16.5008 1.58854C 16.5008 2.06288 16.074 2.4238 15.6051 2.35177C 9.81732 1.46259 6.30949 1.42737 0.920314 2.33278C 0.441202 2.41328 0 2.04649 0 1.56067Z"/>
</defs>
</svg>
