<svg width="19" height="19" viewBox="0 0 19 19" version="1.1" xmlns="http://www.w3.org/2000/svg" xmlns:xlink="http://www.w3.org/1999/xlink">
<title>Comment Icon</title>
<desc>Created using Figma</desc>
<g id="Canvas" transform="translate(749 302)">
<rect x="-749" y="-302" width="19" height="19" fill="#E5E5E5"/>
<clipPath id="clip-0" clip-rule="evenodd">
<path d="M -970 -486L -650 -486L -650 82L -970 82L -970 -486Z" fill="#FFFFFF"/>
</clipPath>
<g id="Component Assets" clip-path="url(#clip-0)">
<path d="M -970 -486L -650 -486L -650 82L -970 82L -970 -486Z" fill="#FBFBFB"/>
<g id="Comment Icon">
<g id="Ellipse">
<use xlink:href="#path0_fill" transform="translate(-749 -302)" fill="#F2F2F2"/>
</g>
<g id="Polygon">
<use xlink:href="#path1_fill" transform="matrix(0.99611 0.0881161 -0.0887064 0.996058 -738.032 -291.917)" fill="#F2F2F2"/>
</g>
</g>
</g>
</g>
<defs>
<path id="path0_fill" d="M 16.681 8.3125C 16.681 12.9034 12.9469 16.625 8.34052 16.625C 3.73418 16.625 0 12.9034 0 8.3125C 0 3.72163 3.73418 0 8.34052 0C 12.9469 0 16.681 3.72163 16.681 8.3125Z"/>
<path id="path1_fill" d="M 4.03162 0L 7.52311 5.42601L 0.540135 5.42601L 4.03162 0Z"/>
</defs>
</svg>
