<svg width="42" height="42" viewBox="0 0 42 42" version="1.1" xmlns="http://www.w3.org/2000/svg" xmlns:xlink="http://www.w3.org/1999/xlink">
<title>NodisplayPic</title>
<desc>Created using Figma</desc>
<g id="Canvas" transform="translate(948 102)">
<g id="NodisplayPic">
<g id="Ellipse">
<use xlink:href="#path0_fill" transform="translate(-948 -102)" fill="#C4C4C4"/>
<mask id="mask0_outline_ins">
<use xlink:href="#path0_fill" fill="white" transform="translate(-948 -102)"/>
</mask>
<g mask="url(#mask0_outline_ins)">
<use xlink:href="#path1_stroke_2x" transform="translate(-948 -102)" fill="#F2F2F2"/>
</g>
</g>
<g id="Group">
<g id="Ellipse 2">
<use xlink:href="#path2_fill" transform="translate(-934 -98)" fill="#828282"/>
</g>
<g id="Ellipse 3">
<use xlink:href="#path3_fill" transform="translate(-941.998 -82.1507)" fill="#828282"/>
</g>
</g>
</g>
</g>
<defs>
<path id="path0_fill" d="M 42 21C 42 32.598 32.598 42 21 42C 9.40202 42 0 32.598 0 21C 0 9.40202 9.40202 0 21 0C 32.598 0 42 9.40202 42 21Z"/>
<path id="path1_stroke_2x" d="M 41 21C 41 32.0457 32.0457 41 21 41L 21 43C 33.1503 43 43 33.1503 43 21L 41 21ZM 21 41C 9.95431 41 1 32.0457 1 21L -1 21C -1 33.1503 8.84974 43 21 43L 21 41ZM 1 21C 1 9.95431 9.95431 1 21 1L 21 -1C 8.84974 -1 -1 8.84974 -1 21L 1 21ZM 21 1C 32.0457 1 41 9.95431 41 21L 43 21C 43 8.84974 33.1503 -1 21 -1L 21 1Z"/>
<path id="path2_fill" d="M 15 7.5C 15 11.6421 11.6421 15 7.5 15C 3.35786 15 0 11.6421 0 7.5C 0 3.35786 3.35786 0 7.5 0C 11.6421 0 15 3.35786 15 7.5Z"/>
<path id="path3_fill" d="M 31.0314 11.6506C 30.0314 14.6784 25.0314 21.1784 15.0314 21.1784C 5.03136 21.1784 -0.468629 14.1784 0.0313579 11.6506C 0.0313579 3.15065 3.49817 -1.34935 15.9982 0.650648C 26.4982 -1.84935 31.0314 3.07489 31.0314 11.6506Z"/>
</defs>
</svg>
